<?xml version="1.0" encoding="UTF-8" ?>
<!DOCTYPE svg PUBLIC "-//W3C//DTD SVG 1.1//EN" "http://www.w3.org/Graphics/SVG/1.1/DTD/svg11.dtd">
<svg width="1094pt" height="625pt" viewBox="0 0 1094 625" version="1.1" xmlns="http://www.w3.org/2000/svg">
<g id="#ced9ddff">
<path fill="#ced9dd" opacity="1.00" d=" M 0.00 0.00 L 1094.00 0.00 L 1094.00 625.00 L 781.19 625.00 C 775.57 591.64 775.20 557.71 773.05 524.03 C 772.94 519.26 772.88 514.48 772.44 509.73 C 771.46 498.31 772.49 486.83 771.52 475.42 C 770.58 464.64 771.19 453.80 771.01 443.00 C 770.12 423.01 769.99 402.99 770.13 382.98 C 771.06 367.83 769.46 352.69 768.45 337.58 C 766.18 313.27 761.86 289.13 755.58 265.53 C 753.51 255.86 749.76 246.67 746.71 237.29 C 743.09 227.73 739.75 218.02 735.08 208.90 C 731.02 200.96 727.80 192.57 722.97 185.04 C 716.04 174.04 709.63 162.64 701.63 152.37 C 694.95 145.32 689.54 137.20 682.73 130.26 C 666.28 114.35 648.27 99.37 627.08 90.25 C 626.24 90.71 625.41 91.18 624.59 91.65 C 625.32 88.13 625.70 84.50 625.35 80.91 C 624.98 77.44 622.98 74.41 622.45 70.99 C 622.14 67.43 622.72 63.74 621.47 60.31 C 620.74 57.66 619.15 55.09 619.56 52.25 C 620.07 48.09 621.61 43.53 619.38 39.59 C 617.20 35.39 612.50 33.64 608.59 31.50 C 607.65 27.94 607.10 23.36 603.22 21.76 C 598.98 19.35 594.14 21.49 590.14 23.34 C 584.81 26.07 579.49 28.88 573.81 30.84 C 565.38 33.98 556.20 34.60 547.90 38.13 C 541.27 41.82 535.12 47.16 532.32 54.41 C 526.33 55.39 518.81 56.86 516.43 63.31 C 514.55 70.73 516.21 78.48 517.44 85.87 C 516.18 85.03 514.93 84.19 513.68 83.35 C 502.35 87.05 491.13 91.53 481.18 98.17 C 471.66 104.18 461.92 110.01 453.37 117.38 C 447.45 123.13 440.79 128.11 435.31 134.31 C 431.32 138.96 426.93 143.25 422.97 147.94 C 415.08 158.12 406.75 168.01 400.19 179.13 C 388.05 198.01 378.41 218.41 370.35 239.34 C 366.50 248.63 363.33 258.21 360.98 268.00 C 350.24 304.26 345.29 342.22 345.95 380.02 C 345.75 387.02 344.86 393.99 345.09 401.00 C 345.30 412.31 344.87 423.61 343.66 434.86 C 342.76 452.46 339.88 469.87 337.39 487.30 C 336.29 496.01 333.53 504.37 331.99 513.00 C 328.93 526.13 325.58 539.22 320.99 551.91 C 318.53 560.98 314.89 569.65 311.37 578.34 C 305.21 594.71 296.55 609.96 287.72 625.00 L 0.00 625.00 L 0.00 0.00 M 199.01 46.40 C 197.20 45.00 195.39 43.61 193.49 42.33 C 192.52 45.12 195.33 46.86 196.56 48.97 C 195.24 50.85 193.76 52.62 192.62 54.63 C 195.15 54.46 197.04 52.70 199.04 51.36 C 201.05 52.50 203.29 56.70 205.61 54.07 C 204.35 52.23 202.83 50.60 201.38 48.93 C 203.03 46.84 205.17 44.78 204.98 41.89 C 202.80 43.12 200.88 44.74 199.01 46.40 M 942.39 71.38 C 936.13 72.78 933.95 81.46 937.89 86.15 C 940.63 89.53 945.72 90.09 949.56 88.46 C 953.19 86.54 954.84 81.95 953.97 78.05 C 953.33 72.90 947.09 69.68 942.39 71.38 M 977.36 314.36 C 974.47 315.12 973.21 310.38 970.13 311.13 C 970.14 313.92 973.27 315.24 973.69 317.80 C 972.28 319.78 970.52 321.60 969.98 324.06 C 972.73 323.69 974.39 321.00 976.87 320.32 C 979.11 321.52 980.69 323.72 983.00 324.87 C 985.06 321.53 979.61 320.21 979.43 317.24 C 980.79 314.79 983.10 313.02 984.84 310.84 C 981.54 309.63 979.57 312.47 977.36 314.36 M 267.39 486.47 C 264.64 486.69 261.95 488.03 260.43 490.38 C 257.18 495.76 260.11 504.54 267.08 504.73 C 273.88 506.25 279.64 498.17 276.89 492.10 C 275.64 488.22 271.28 486.04 267.39 486.47 M 56.81 557.43 C 57.59 559.41 58.66 561.27 59.82 563.08 C 58.73 564.86 57.69 566.67 56.86 568.60 C 59.01 567.78 61.01 566.65 62.99 565.50 C 63.85 566.50 64.70 567.52 65.55 568.54 C 66.72 568.55 67.89 568.55 69.07 568.54 C 67.70 566.71 66.13 565.03 64.43 563.50 C 65.95 561.63 67.32 559.62 68.24 557.39 C 66.14 558.23 64.38 559.82 62.24 560.51 C 60.43 559.47 58.74 558.23 56.81 557.43 Z" />
</g>
<g id="#8c462dff">
<path fill="#8c462d" opacity="1.00" d=" M 590.14 23.34 C 594.14 21.49 598.98 19.35 603.22 21.76 C 607.10 23.36 607.65 27.94 608.59 31.50 C 612.50 33.64 617.20 35.39 619.38 39.59 C 621.61 43.53 620.07 48.09 619.56 52.25 C 619.15 55.09 620.74 57.66 621.47 60.31 C 622.72 63.74 622.14 67.43 622.45 70.99 C 622.98 74.41 624.98 77.44 625.35 80.91 C 625.70 84.50 625.32 88.13 624.59 91.65 C 624.22 93.32 623.80 94.97 623.42 96.64 C 623.16 96.23 622.90 95.83 622.65 95.42 C 620.50 101.06 617.76 106.45 615.62 112.09 C 613.38 123.01 611.73 134.06 609.25 144.94 C 608.51 148.32 608.15 151.77 607.69 155.20 C 605.66 164.03 607.15 173.14 605.77 182.05 C 605.43 186.20 604.52 190.28 603.24 194.25 C 600.73 196.64 597.50 197.99 594.49 199.62 C 590.84 201.55 587.85 204.81 583.68 205.65 C 576.53 207.37 569.20 205.91 562.02 205.34 C 557.21 204.86 552.15 204.60 547.89 202.08 C 542.97 199.16 539.41 194.51 536.05 189.98 C 534.59 187.18 533.54 184.16 533.24 181.00 C 532.63 175.53 531.16 170.22 529.91 164.88 C 530.18 167.62 530.40 170.37 530.44 173.12 C 529.52 165.83 529.25 158.47 528.11 151.19 C 528.61 143.27 528.21 135.33 526.69 127.53 C 525.50 121.77 525.76 115.80 524.27 110.11 C 521.07 102.31 519.26 94.07 517.44 85.87 C 516.21 78.48 514.55 70.73 516.43 63.31 C 518.81 56.86 526.33 55.39 532.32 54.41 C 535.12 47.16 541.27 41.82 547.90 38.13 C 556.20 34.60 565.38 33.98 573.81 30.84 C 579.49 28.88 584.81 26.07 590.14 23.34 M 532.53 58.02 C 532.96 61.74 533.04 65.52 533.94 69.17 C 534.42 70.87 535.63 73.02 537.70 72.76 C 539.28 71.82 538.68 69.95 538.37 68.51 C 537.42 64.76 536.42 61.02 535.80 57.20 C 534.70 57.47 533.62 57.75 532.53 58.02 M 553.04 63.12 C 550.96 63.81 551.28 66.24 550.94 67.96 C 553.81 67.95 556.77 67.73 559.33 66.30 C 564.51 63.61 570.03 61.61 575.79 60.59 C 575.80 59.98 575.82 58.75 575.84 58.14 C 567.91 57.37 560.10 59.66 553.04 63.12 M 566.70 64.78 C 566.31 66.15 566.10 67.56 565.86 68.95 C 570.95 68.89 575.95 67.56 581.05 67.65 C 590.40 67.92 597.49 76.15 606.98 75.74 C 610.63 75.49 615.95 74.70 616.19 70.08 C 612.81 70.36 609.47 71.06 606.08 70.99 C 598.41 70.05 592.33 64.25 584.61 63.46 C 578.63 62.89 572.54 63.50 566.70 64.78 M 532.09 83.28 C 529.55 87.46 529.60 92.46 528.91 97.15 C 528.22 101.24 529.42 105.29 529.40 109.37 L 528.64 109.37 C 528.16 110.29 527.69 111.21 527.22 112.14 C 528.96 118.25 528.85 125.38 533.58 130.19 L 532.76 129.58 C 532.87 135.23 534.87 140.57 535.62 146.12 C 536.04 149.37 536.80 152.56 537.88 155.66 C 543.69 154.15 549.35 152.12 555.01 150.12 C 558.76 149.89 562.58 149.70 566.24 150.73 C 570.45 152.16 574.74 149.96 579.01 150.64 C 583.43 151.28 587.78 152.40 592.25 152.72 C 596.34 154.14 600.99 153.33 604.55 150.92 C 604.02 143.92 606.55 137.20 606.57 130.25 C 606.22 130.21 605.50 130.14 605.14 130.10 C 610.32 125.97 609.23 119.00 611.26 113.38 C 612.05 111.95 610.68 110.75 610.10 109.55 L 610.92 109.57 C 609.59 104.80 609.45 99.84 609.53 94.91 C 609.88 91.08 607.13 87.94 604.48 85.55 C 600.56 82.29 595.08 83.44 590.45 82.23 C 584.86 80.69 579.93 77.12 574.04 76.58 C 568.84 76.19 564.01 73.21 558.71 74.21 C 553.63 74.88 549.04 71.69 544.04 71.74 C 538.43 73.33 534.82 78.45 532.09 83.28 M 561.04 155.17 C 560.72 155.32 560.09 155.64 559.78 155.80 C 556.48 156.66 553.51 158.36 550.87 160.47 C 549.18 162.46 545.76 165.06 548.15 167.84 C 551.42 172.07 556.82 177.23 562.59 174.66 C 564.30 172.35 564.18 169.27 564.74 166.55 C 568.18 166.53 571.71 166.01 575.11 166.81 C 575.82 169.41 574.82 172.93 577.53 174.56 C 579.91 176.18 582.89 175.07 585.46 174.58 C 588.82 173.61 593.11 172.75 594.31 168.92 C 594.95 165.79 592.74 163.16 591.26 160.65 C 585.44 156.46 578.28 154.93 571.35 153.73 C 567.85 153.14 564.24 153.65 561.04 155.17 Z" />
</g>
<g id="#203d48ff">
<path fill="#203d48" opacity="1.00" d=" M 199.01 46.40 C 200.88 44.74 202.80 43.12 204.98 41.89 C 205.17 44.78 203.03 46.84 201.38 48.93 C 202.83 50.60 204.35 52.23 205.61 54.07 C 203.29 56.70 201.05 52.50 199.04 51.36 C 197.04 52.70 195.15 54.46 192.62 54.63 C 193.76 52.62 195.24 50.85 196.56 48.97 C 195.33 46.86 192.52 45.12 193.49 42.33 C 195.39 43.61 197.20 45.00 199.01 46.40 Z" />
</g>
<g id="#74331dff">
<path fill="#74331d" opacity="1.00" d=" M 532.53 58.02 C 533.62 57.75 534.70 57.47 535.80 57.20 C 536.42 61.02 537.42 64.76 538.37 68.51 C 538.68 69.95 539.28 71.82 537.70 72.76 C 535.63 73.02 534.42 70.87 533.94 69.17 C 533.04 65.52 532.96 61.74 532.53 58.02 Z" />
</g>
<g id="#703019ff">
<path fill="#703019" opacity="1.00" d=" M 553.04 63.12 C 560.10 59.66 567.91 57.37 575.84 58.14 C 575.82 58.75 575.80 59.98 575.79 60.59 C 570.03 61.61 564.51 63.61 559.33 66.30 C 556.77 67.73 553.81 67.95 550.94 67.96 C 551.28 66.24 550.96 63.81 553.04 63.12 Z" />
</g>
<g id="#70301bff">
<path fill="#70301b" opacity="1.00" d=" M 566.70 64.78 C 572.54 63.50 578.63 62.89 584.61 63.46 C 592.33 64.25 598.41 70.05 606.08 70.99 C 609.47 71.06 612.81 70.36 616.19 70.08 C 615.95 74.70 610.63 75.49 606.98 75.74 C 597.49 76.15 590.40 67.92 581.05 67.65 C 575.95 67.56 570.95 68.89 565.86 68.95 C 566.10 67.56 566.31 66.15 566.70 64.78 Z" />
</g>
<g id="#66abaeff">
<path fill="#66abae" opacity="1.00" d=" M 942.39 71.38 C 947.09 69.68 953.33 72.90 953.97 78.05 C 954.84 81.95 953.19 86.54 949.56 88.46 C 945.72 90.09 940.63 89.53 937.89 86.15 C 933.95 81.46 936.13 72.78 942.39 71.38 M 942.35 75.34 C 937.21 77.89 940.28 86.76 945.81 85.69 C 951.03 85.57 952.05 77.38 947.67 75.28 C 945.92 74.90 944.07 74.92 942.35 75.34 Z" />
</g>
<g id="#f3bc98ff">
<path fill="#f3bc98" opacity="1.00" d=" M 532.09 83.28 C 534.82 78.45 538.43 73.33 544.04 71.74 C 549.04 71.69 553.63 74.88 558.71 74.21 C 564.01 73.21 568.84 76.19 574.04 76.58 C 579.93 77.12 584.86 80.69 590.45 82.23 C 595.08 83.44 600.56 82.29 604.48 85.55 C 607.13 87.94 609.88 91.08 609.53 94.91 C 609.45 99.84 609.59 104.80 610.92 109.57 L 610.10 109.55 C 604.39 109.41 598.68 109.35 592.98 109.37 C 584.81 109.23 577.19 113.22 568.99 112.74 C 561.78 113.16 555.23 109.26 548.06 109.38 C 541.84 109.32 535.62 109.46 529.40 109.37 C 529.42 105.29 528.22 101.24 528.91 97.15 C 529.60 92.46 529.55 87.46 532.09 83.28 M 533.23 101.41 C 530.54 101.96 531.06 105.31 531.68 107.26 C 536.10 108.17 540.62 107.31 545.08 107.29 C 549.30 107.30 553.50 106.89 557.70 106.55 C 557.66 104.63 558.13 102.57 557.26 100.77 C 549.63 97.06 540.88 98.76 533.23 101.41 M 579.44 100.71 C 579.40 102.59 579.31 104.47 579.57 106.33 C 588.44 107.25 597.43 107.98 606.33 106.99 C 606.01 105.40 606.22 103.31 604.60 102.37 C 601.16 100.08 596.95 99.45 592.98 98.75 C 588.36 98.00 583.85 99.60 579.44 100.71 Z" />
</g>
<g id="#c5dce0ff">
<path fill="#c5dce0" opacity="1.00" d=" M 942.35 75.34 C 944.07 74.92 945.92 74.90 947.67 75.28 C 952.05 77.38 951.03 85.57 945.81 85.69 C 940.28 86.76 937.21 77.89 942.35 75.34 Z" />
</g>
<g id="#dde7e8ff">
<path fill="#dde7e8" opacity="1.00" d=" M 481.18 98.17 C 491.13 91.53 502.35 87.05 513.68 83.35 C 514.93 84.19 516.18 85.03 517.44 85.87 C 519.26 94.07 521.07 102.31 524.27 110.11 C 521.44 114.24 517.90 118.54 518.19 123.85 C 518.02 133.91 523.29 142.77 528.11 151.19 C 529.25 158.47 529.52 165.83 530.44 173.12 C 530.40 170.37 530.18 167.62 529.91 164.88 C 531.16 170.22 532.63 175.53 533.24 181.00 C 533.54 184.16 534.59 187.18 536.05 189.98 C 536.93 192.80 537.44 195.71 538.19 198.56 C 537.02 198.84 535.85 199.13 534.69 199.41 C 534.55 199.12 534.27 198.55 534.14 198.27 C 527.02 201.27 521.57 207.00 515.14 211.15 C 509.11 216.01 501.59 218.23 494.90 221.94 C 480.66 227.69 465.87 232.25 450.78 235.18 C 445.05 236.47 440.22 240.59 437.60 245.78 C 426.70 267.52 419.96 290.98 410.65 313.38 C 400.24 339.59 389.65 365.75 380.62 392.47 C 377.56 403.03 372.69 413.82 374.77 425.04 C 376.75 434.21 384.90 439.95 392.10 445.02 C 401.19 451.79 411.71 456.17 421.72 461.35 C 432.95 466.99 444.32 472.33 455.67 477.73 C 450.62 510.73 444.07 543.50 440.02 576.65 C 439.64 579.05 439.32 581.49 439.57 583.93 C 440.94 585.09 442.56 585.94 444.14 586.80 C 445.54 587.94 447.84 588.87 447.71 591.01 C 447.92 598.40 445.63 605.58 445.46 612.95 C 445.36 616.98 444.94 620.99 444.53 625.00 L 287.72 625.00 C 296.55 609.96 305.21 594.71 311.37 578.34 C 314.89 569.65 318.53 560.98 320.99 551.91 C 325.58 539.22 328.93 526.13 331.99 513.00 C 333.53 504.37 336.29 496.01 337.39 487.30 C 339.88 469.87 342.76 452.46 343.66 434.86 C 344.87 423.61 345.30 412.31 345.09 401.00 C 344.86 393.99 345.75 387.02 345.95 380.02 C 345.29 342.22 350.24 304.26 360.98 268.00 C 363.33 258.21 366.50 248.63 370.35 239.34 C 378.41 218.41 388.05 198.01 400.19 179.13 C 406.75 168.01 415.08 158.12 422.97 147.94 C 426.93 143.25 431.32 138.96 435.31 134.31 C 440.79 128.11 447.45 123.13 453.37 117.38 C 461.92 110.01 471.66 104.18 481.18 98.17 Z" />
<path fill="#dde7e8" opacity="1.00" d=" M 624.59 91.65 C 625.41 91.18 626.24 90.71 627.08 90.25 C 648.27 99.37 666.28 114.35 682.73 130.26 C 689.54 137.20 694.95 145.32 701.63 152.37 C 709.63 162.64 716.04 174.04 722.97 185.04 C 727.80 192.57 731.02 200.96 735.08 208.90 C 739.75 218.02 743.09 227.73 746.71 237.29 C 749.76 246.67 753.51 255.86 755.58 265.53 C 761.86 289.13 766.18 313.27 768.45 337.58 C 769.46 352.69 771.06 367.83 770.13 382.98 C 769.99 402.99 770.12 423.01 771.01 443.00 C 771.19 453.80 770.58 464.64 771.52 475.42 C 772.49 486.83 771.46 498.31 772.44 509.73 C 772.88 514.48 772.94 519.26 773.05 524.03 C 775.20 557.71 775.57 591.64 781.19 625.00 L 657.53 625.00 C 657.69 615.62 659.05 606.26 658.27 596.87 C 661.80 594.66 667.44 592.11 666.28 587.04 C 663.80 571.67 662.86 556.08 659.86 540.79 C 657.70 521.77 654.69 502.85 652.39 483.84 C 652.04 484.85 651.72 485.87 651.42 486.90 C 652.68 476.60 649.46 466.51 649.18 456.26 C 657.53 456.16 665.74 457.93 674.07 458.33 C 683.73 458.54 693.38 460.23 703.04 459.10 C 709.50 458.25 714.82 453.41 717.85 447.85 C 721.61 440.69 720.84 432.27 719.47 424.59 C 715.92 403.39 711.20 382.41 706.82 361.38 C 705.73 356.64 704.60 351.89 704.29 347.03 C 704.09 348.01 703.90 349.00 703.72 349.99 C 703.30 343.16 701.42 336.55 700.05 329.88 C 697.43 316.91 694.25 304.07 691.68 291.10 C 690.33 283.78 688.04 276.64 687.28 269.21 C 687.08 269.74 686.89 270.28 686.71 270.82 C 685.75 264.84 685.60 256.94 679.31 253.92 C 661.29 246.97 644.34 237.58 627.31 228.52 C 623.06 225.89 618.01 224.26 614.74 220.30 C 611.21 216.28 607.85 212.11 604.56 207.90 C 604.55 208.49 604.54 209.69 604.54 210.28 C 604.12 209.64 603.29 208.37 602.87 207.73 C 603.24 203.24 602.95 198.73 603.24 194.25 C 604.52 190.28 605.43 186.20 605.77 182.05 C 607.15 173.14 605.66 164.03 607.69 155.20 C 610.19 153.97 612.43 152.18 613.66 149.62 C 617.58 142.34 621.95 134.66 621.71 126.12 C 621.86 120.73 617.88 116.63 615.62 112.09 C 617.76 106.45 620.50 101.06 622.65 95.42 C 622.90 95.83 623.16 96.23 623.42 96.64 C 623.80 94.97 624.22 93.32 624.59 91.65 Z" />
</g>
<g id="#8e4a2eff">
<path fill="#8e4a2e" opacity="1.00" d=" M 533.23 101.41 C 540.88 98.76 549.63 97.06 557.26 100.77 C 558.13 102.57 557.66 104.63 557.70 106.55 C 553.50 106.89 549.30 107.30 545.08 107.29 C 540.62 107.31 536.10 108.17 531.68 107.26 C 531.06 105.31 530.54 101.96 533.23 101.41 Z" />
</g>
<g id="#8c482cff">
<path fill="#8c482c" opacity="1.00" d=" M 579.44 100.71 C 583.85 99.60 588.36 98.00 592.98 98.75 C 596.95 99.45 601.16 100.08 604.60 102.37 C 606.22 103.31 606.01 105.40 606.33 106.99 C 597.43 107.98 588.44 107.25 579.57 106.33 C 579.31 104.47 579.40 102.59 579.44 100.71 Z" />
</g>
<g id="#232e32ff">
<path fill="#232e32" opacity="1.00" d=" M 528.64 109.37 L 529.40 109.37 C 535.62 109.46 541.84 109.32 548.06 109.38 C 555.23 109.26 561.78 113.16 568.99 112.74 C 577.19 113.22 584.81 109.23 592.98 109.37 C 598.68 109.35 604.39 109.41 610.10 109.55 C 610.68 110.75 612.05 111.95 611.26 113.38 C 609.23 119.00 610.32 125.97 605.14 130.10 C 598.92 136.23 588.92 135.21 582.03 130.86 C 578.00 127.55 577.07 122.09 575.65 117.35 C 571.72 117.28 567.79 117.26 563.86 117.32 C 562.42 120.38 561.24 123.55 560.14 126.74 C 554.42 135.18 541.20 137.23 533.58 130.19 C 528.85 125.38 528.96 118.25 527.22 112.14 C 527.69 111.21 528.16 110.29 528.64 109.37 M 597.00 112.41 C 598.19 114.01 599.42 115.60 600.60 117.23 C 598.32 117.35 596.05 117.36 593.78 117.37 C 593.48 118.76 593.25 120.20 592.56 121.46 C 591.14 122.03 589.58 121.74 588.12 121.82 C 587.82 120.38 587.58 118.94 587.36 117.50 C 585.75 117.51 584.14 117.51 582.55 117.51 C 582.57 116.67 582.61 115.01 582.63 114.18 C 581.37 114.25 580.12 114.32 578.88 114.39 C 577.62 118.55 579.72 122.59 582.02 125.94 C 585.13 130.28 590.88 131.86 596.00 131.50 C 599.52 131.61 602.25 128.89 604.39 126.43 C 607.65 122.56 606.75 117.11 606.14 112.50 C 603.09 112.53 600.04 112.45 597.00 112.41 M 531.78 112.80 C 530.55 119.79 533.02 127.92 539.95 130.93 C 544.58 132.31 549.88 131.40 553.97 128.84 C 558.21 125.54 560.79 120.10 560.62 114.71 C 558.23 114.27 555.85 113.74 553.47 113.24 C 553.54 114.27 553.67 116.34 553.73 117.37 C 552.37 117.39 551.02 117.41 549.68 117.44 C 549.27 118.77 548.88 120.11 548.36 121.40 C 547.17 122.27 545.64 121.98 544.30 121.91 C 543.75 120.40 543.24 118.88 542.75 117.36 C 540.43 117.32 538.12 117.33 535.82 117.27 C 536.55 115.68 537.35 114.11 538.14 112.54 C 536.02 112.63 533.89 112.72 531.78 112.80 Z" />
</g>
<g id="#f3bb98ff">
<path fill="#f3bb98" opacity="1.00" d=" M 524.27 110.11 C 525.76 115.80 525.50 121.77 526.69 127.53 C 528.21 135.33 528.61 143.27 528.11 151.19 C 523.29 142.77 518.02 133.91 518.19 123.85 C 517.90 118.54 521.44 114.24 524.27 110.11 Z" />
</g>
<g id="#eebd9dff">
<path fill="#eebd9d" opacity="1.00" d=" M 597.00 112.41 C 600.04 112.45 603.09 112.53 606.14 112.50 C 606.75 117.11 607.65 122.56 604.39 126.43 C 602.25 128.89 599.52 131.61 596.00 131.50 C 590.88 131.86 585.13 130.28 582.02 125.94 C 579.72 122.59 577.62 118.55 578.88 114.39 C 580.12 114.32 581.37 114.25 582.63 114.18 C 582.61 115.01 582.57 116.67 582.55 117.51 C 584.14 117.51 585.75 117.51 587.36 117.50 C 587.58 118.94 587.82 120.38 588.12 121.82 C 589.58 121.74 591.14 122.03 592.56 121.46 C 593.25 120.20 593.48 118.76 593.78 117.37 C 596.05 117.36 598.32 117.35 600.60 117.23 C 599.42 115.60 598.19 114.01 597.00 112.41 Z" />
</g>
<g id="#f2bb9aff">
<path fill="#f2bb9a" opacity="1.00" d=" M 609.25 144.94 C 611.73 134.06 613.38 123.01 615.62 112.09 C 617.88 116.63 621.86 120.73 621.71 126.12 C 621.95 134.66 617.58 142.34 613.66 149.62 C 612.43 152.18 610.19 153.97 607.69 155.20 C 608.15 151.77 608.51 148.32 609.25 144.94 Z" />
</g>
<g id="#eebd9eff">
<path fill="#eebd9e" opacity="1.00" d=" M 531.78 112.80 C 533.89 112.72 536.02 112.63 538.14 112.54 C 537.35 114.11 536.55 115.68 535.82 117.27 C 538.12 117.33 540.43 117.32 542.75 117.36 C 543.24 118.88 543.75 120.40 544.30 121.91 C 545.64 121.98 547.17 122.27 548.36 121.40 C 548.88 120.11 549.27 118.77 549.68 117.44 C 551.02 117.41 552.37 117.39 553.73 117.37 C 553.67 116.34 553.54 114.27 553.47 113.24 C 555.85 113.74 558.23 114.27 560.62 114.71 C 560.79 120.10 558.21 125.54 553.97 128.84 C 549.88 131.40 544.58 132.31 539.95 130.93 C 533.02 127.92 530.55 119.79 531.78 112.80 Z" />
</g>
<g id="#f2bc98ff">
<path fill="#f2bc98" opacity="1.00" d=" M 563.86 117.32 C 567.79 117.26 571.72 117.28 575.65 117.35 C 577.07 122.09 578.00 127.55 582.03 130.86 C 588.92 135.21 598.92 136.23 605.14 130.10 C 605.50 130.14 606.22 130.21 606.57 130.25 C 606.55 137.20 604.02 143.92 604.55 150.92 C 600.99 153.33 596.34 154.14 592.25 152.72 C 585.73 149.86 578.55 150.02 571.68 148.69 C 572.45 147.64 573.22 146.59 574.01 145.54 C 572.78 145.05 571.57 144.53 570.32 144.16 C 569.49 145.04 568.72 145.96 567.99 146.93 C 566.32 146.42 564.08 146.40 563.23 144.59 C 562.13 142.35 563.02 139.79 563.29 137.46 C 564.57 130.84 564.95 124.01 563.86 117.32 Z" />
<path fill="#f2bc98" opacity="1.00" d=" M 533.58 130.19 C 541.20 137.23 554.42 135.18 560.14 126.74 C 562.04 134.10 558.19 141.31 558.62 148.74 C 557.41 149.20 556.21 149.66 555.01 150.12 C 549.35 152.12 543.69 154.15 537.88 155.66 C 536.80 152.56 536.04 149.37 535.62 146.12 C 534.87 140.57 532.87 135.23 532.76 129.58 L 533.58 130.19 Z" />
<path fill="#f2bc98" opacity="1.00" d=" M 536.05 189.98 C 539.41 194.51 542.97 199.16 547.89 202.08 C 552.15 204.60 557.21 204.86 562.02 205.34 C 569.20 205.91 576.53 207.37 583.68 205.65 C 587.85 204.81 590.84 201.55 594.49 199.62 C 597.50 197.99 600.73 196.64 603.24 194.25 C 602.95 198.73 603.24 203.24 602.87 207.73 C 599.72 216.44 592.72 223.24 585.09 228.20 C 581.18 230.75 576.79 232.52 572.19 233.30 C 561.74 225.79 551.18 218.01 543.28 207.72 C 541.16 204.92 539.41 201.85 538.19 198.56 C 537.44 195.71 536.93 192.80 536.05 189.98 Z" />
<path fill="#f2bc98" opacity="1.00" d=" M 557.35 281.98 C 557.76 275.57 557.43 268.63 560.95 262.96 C 559.45 268.86 559.73 275.00 559.01 281.01 C 558.02 288.99 558.43 297.06 557.71 305.07 C 555.94 320.65 557.52 336.37 555.99 351.97 C 555.82 358.83 554.73 365.73 555.43 372.56 C 560.16 379.29 567.30 384.47 575.15 386.98 L 575.12 387.58 C 574.93 399.03 577.90 412.09 569.77 421.68 C 569.68 420.97 569.49 419.55 569.40 418.84 C 564.76 420.16 564.21 425.26 563.01 429.18 C 562.29 426.38 561.55 423.60 560.85 420.80 C 555.54 421.25 550.19 421.61 544.87 421.12 C 539.88 419.80 534.93 418.28 529.83 417.48 C 524.73 416.54 519.05 415.70 515.41 411.62 C 511.24 407.48 511.62 401.13 508.87 396.22 C 507.10 393.26 508.83 390.17 510.74 387.83 C 511.24 383.34 511.89 378.86 512.64 374.39 C 515.61 374.09 518.64 374.08 521.56 374.83 C 519.60 372.70 518.42 370.02 518.68 367.09 C 524.22 367.15 529.46 369.37 535.01 369.31 C 538.42 369.34 541.84 369.42 545.25 369.80 C 546.83 370.05 548.41 370.30 550.02 370.50 C 551.25 370.65 552.50 370.78 553.75 370.91 C 554.82 358.76 553.99 346.54 554.66 334.37 C 555.55 324.27 556.40 314.14 556.21 303.99 C 556.04 296.63 556.96 289.31 557.35 281.98 Z" />
<path fill="#f2bc98" opacity="1.00" d=" M 590.56 423.71 C 592.12 424.64 593.84 425.44 595.07 426.84 C 596.38 429.05 596.86 431.61 597.64 434.03 C 599.31 435.27 601.93 436.08 602.22 438.47 C 602.66 442.31 602.87 446.18 603.23 450.04 C 603.79 455.72 599.50 460.08 596.20 464.14 C 590.39 470.74 585.06 477.90 578.03 483.29 C 574.23 483.53 570.45 483.91 566.66 484.16 C 565.08 484.26 563.51 484.37 561.96 484.65 C 561.64 484.81 561.01 485.14 560.69 485.30 C 546.30 486.12 531.89 486.50 517.51 487.62 C 517.32 488.02 516.94 488.84 516.75 489.24 C 513.43 477.51 517.96 465.76 522.81 455.20 C 522.23 454.47 521.66 453.75 521.10 453.04 C 522.47 453.50 523.82 454.06 525.17 454.62 C 533.11 445.62 544.25 440.70 555.05 436.05 C 558.83 434.60 562.48 432.85 566.18 431.19 C 568.27 430.60 570.36 430.00 572.46 429.41 C 572.52 428.98 572.65 428.12 572.71 427.69 C 578.14 427.57 583.45 426.21 588.90 426.18 C 589.31 425.56 590.15 424.33 590.56 423.71 M 584.79 428.10 C 584.54 429.69 584.73 431.30 584.89 432.90 C 582.68 433.34 581.22 435.20 579.53 436.52 C 574.99 440.53 569.77 443.61 564.49 446.51 C 563.51 448.96 566.28 450.42 568.31 450.70 C 573.00 451.21 577.36 448.71 581.08 446.14 C 585.30 443.27 587.86 437.63 586.00 432.68 C 589.44 433.07 588.34 429.20 588.80 427.01 C 587.44 427.29 585.97 427.31 584.79 428.10 M 595.44 435.72 C 595.09 440.03 595.48 444.57 593.64 448.62 C 590.51 455.68 584.82 461.22 578.60 465.64 C 577.07 466.57 576.29 468.19 575.65 469.81 C 577.67 469.24 579.77 468.71 581.52 467.49 C 588.73 462.05 596.68 455.59 597.71 445.94 C 597.84 442.55 599.32 437.51 595.44 435.72 Z" />
</g>
<g id="#d69c7dff">
<path fill="#d69c7d" opacity="1.00" d=" M 560.14 126.74 C 561.24 123.55 562.42 120.38 563.86 117.32 C 564.95 124.01 564.57 130.84 563.29 137.46 C 563.02 139.79 562.13 142.35 563.23 144.59 C 564.08 146.40 566.32 146.42 567.99 146.93 C 568.72 145.96 569.49 145.04 570.32 144.16 C 571.57 144.53 572.78 145.05 574.01 145.54 C 573.22 146.59 572.45 147.64 571.68 148.69 C 578.55 150.02 585.73 149.86 592.25 152.72 C 587.78 152.40 583.43 151.28 579.01 150.64 C 574.74 149.96 570.45 152.16 566.24 150.73 C 562.58 149.70 558.76 149.89 555.01 150.12 C 556.21 149.66 557.41 149.20 558.62 148.74 C 558.19 141.31 562.04 134.10 560.14 126.74 Z" />
</g>
<g id="#d79b7bff">
<path fill="#d79b7b" opacity="1.00" d=" M 561.04 155.17 C 564.24 153.65 567.85 153.14 571.35 153.73 C 578.28 154.93 585.44 156.46 591.26 160.65 C 590.16 160.53 589.07 160.41 587.98 160.29 C 576.55 166.56 562.64 164.90 550.87 160.47 C 553.51 158.36 556.48 156.66 559.78 155.80 C 558.76 156.67 557.78 157.59 556.81 158.50 C 562.28 161.93 568.95 160.95 575.07 160.87 C 578.19 160.91 581.08 159.68 583.73 158.14 C 576.60 155.03 568.71 154.48 561.04 155.17 Z" />
</g>
<g id="#f4b996ff">
<path fill="#f4b996" opacity="1.00" d=" M 559.78 155.80 C 560.09 155.64 560.72 155.32 561.04 155.17 C 568.71 154.48 576.60 155.03 583.73 158.14 C 581.08 159.68 578.19 160.91 575.07 160.87 C 568.95 160.95 562.28 161.93 556.81 158.50 C 557.78 157.59 558.76 156.67 559.78 155.80 Z" />
</g>
<g id="#f4ba98ff">
<path fill="#f4ba98" opacity="1.00" d=" M 550.87 160.47 C 562.64 164.90 576.55 166.56 587.98 160.29 C 589.07 160.41 590.16 160.53 591.26 160.65 C 592.74 163.16 594.95 165.79 594.31 168.92 C 593.11 172.75 588.82 173.61 585.46 174.58 C 582.89 175.07 579.91 176.18 577.53 174.56 C 574.82 172.93 575.82 169.41 575.11 166.81 C 571.71 166.01 568.18 166.53 564.74 166.55 C 564.18 169.27 564.30 172.35 562.59 174.66 C 556.82 177.23 551.42 172.07 548.15 167.84 C 545.76 165.06 549.18 162.46 550.87 160.47 Z" />
</g>
<g id="#3b6073ff">
<path fill="#3b6073" opacity="1.00" d=" M 515.14 211.15 C 521.57 207.00 527.02 201.27 534.14 198.27 C 534.27 198.55 534.55 199.12 534.69 199.41 C 529.43 211.56 530.16 225.07 530.68 237.99 C 531.43 244.62 531.93 251.30 531.35 257.96 C 531.65 256.60 531.96 255.24 532.30 253.88 C 533.02 263.00 533.99 272.10 535.57 281.11 C 538.15 303.80 541.97 326.33 546.46 348.72 C 547.50 356.00 549.75 363.11 550.02 370.50 C 548.41 370.30 546.83 370.05 545.25 369.80 C 541.70 369.05 538.07 368.69 534.60 367.63 C 529.99 356.58 526.27 345.13 522.14 333.88 C 511.57 305.19 501.82 276.21 491.71 247.36 C 491.22 245.69 490.83 243.96 490.83 242.21 C 494.41 239.35 498.66 237.49 502.44 234.91 C 499.56 232.87 496.55 230.99 493.83 228.74 C 494.84 225.47 497.86 223.47 500.14 221.12 C 498.39 221.38 496.64 221.62 494.90 221.94 C 501.59 218.23 509.11 216.01 515.14 211.15 Z" />
<path fill="#3b6073" opacity="1.00" d=" M 537.98 573.98 C 544.87 559.25 550.14 543.74 553.63 527.86 C 556.01 528.43 558.40 529.00 560.83 529.40 C 559.15 541.61 559.34 553.99 558.41 566.27 C 557.84 572.79 557.94 579.34 557.54 585.87 C 557.30 590.04 556.42 594.40 558.05 598.42 C 558.96 597.42 559.90 596.33 559.98 594.92 C 560.74 589.81 560.72 584.62 561.33 579.50 C 563.92 578.48 566.75 577.75 568.90 575.89 C 571.11 573.91 571.75 570.85 571.98 568.03 C 572.59 559.36 572.51 550.67 572.31 542.00 C 572.07 539.51 573.04 537.18 574.86 535.51 C 576.77 546.37 580.04 556.96 583.62 567.38 C 587.07 576.97 590.54 586.90 597.20 594.81 C 603.66 602.17 614.00 603.93 623.29 604.55 C 635.32 604.53 647.23 601.59 658.27 596.87 C 659.05 606.26 657.69 615.62 657.53 625.00 L 560.95 625.00 C 560.77 617.37 560.05 609.79 559.36 602.20 C 558.48 602.26 557.61 602.33 556.74 602.41 C 555.35 610.05 552.83 617.41 551.22 625.00 L 444.53 625.00 C 444.94 620.99 445.36 616.98 445.46 612.95 C 445.63 605.58 447.92 598.40 447.71 591.01 C 447.84 588.87 445.54 587.94 444.14 586.80 C 460.55 594.84 478.20 600.51 496.39 602.57 C 503.74 603.08 511.69 603.03 518.29 599.32 C 527.46 593.33 533.37 583.67 537.98 573.98 Z" />
</g>
<g id="#fefefeff">
<path fill="#fefefe" opacity="1.00" d=" M 534.69 199.41 C 535.85 199.13 537.02 198.84 538.19 198.56 C 539.41 201.85 541.16 204.92 543.28 207.72 C 551.18 218.01 561.74 225.79 572.19 233.30 C 573.13 233.96 574.07 234.62 574.97 235.36 C 573.84 237.05 571.62 237.26 569.86 237.92 C 571.82 237.97 573.79 238.06 575.76 238.17 C 575.52 238.46 575.03 239.03 574.78 239.32 C 569.88 240.30 564.59 241.93 561.45 246.07 C 562.09 249.47 564.21 252.47 564.52 255.94 C 563.99 258.55 562.17 260.64 560.95 262.96 C 557.43 268.63 557.76 275.57 557.35 281.98 C 556.96 289.31 556.04 296.63 556.21 303.99 C 556.40 314.14 555.55 324.27 554.66 334.37 C 553.99 346.54 554.82 358.76 553.75 370.91 C 552.50 370.78 551.25 370.65 550.02 370.50 C 549.75 363.11 547.50 356.00 546.46 348.72 C 541.97 326.33 538.15 303.80 535.57 281.11 C 533.99 272.10 533.02 263.00 532.30 253.88 C 531.96 255.24 531.65 256.60 531.35 257.96 C 531.93 251.30 531.43 244.62 530.68 237.99 C 530.16 225.07 529.43 211.56 534.69 199.41 M 554.30 248.35 C 553.04 248.15 551.71 249.80 552.61 250.89 C 554.11 252.25 556.47 248.95 554.30 248.35 Z" />
<path fill="#fefefe" opacity="1.00" d=" M 504.47 453.46 C 505.70 452.19 506.84 450.07 508.90 450.31 C 513.05 450.74 517.06 452.01 521.10 453.04 C 521.66 453.75 522.23 454.47 522.81 455.20 C 517.96 465.76 513.43 477.51 516.75 489.24 C 516.59 489.61 516.29 490.34 516.14 490.71 C 510.88 490.66 505.56 490.69 500.42 489.41 C 498.65 488.91 496.46 488.78 495.43 487.02 C 494.04 475.20 497.48 463.04 504.47 453.46 Z" />
</g>
<g id="#fdfefdff">
<path fill="#fdfefd" opacity="1.00" d=" M 585.09 228.20 C 592.72 223.24 599.72 216.44 602.87 207.73 C 603.29 208.37 604.12 209.64 604.54 210.28 C 605.87 240.04 601.56 269.75 595.03 298.72 C 592.27 313.85 588.09 328.69 585.33 343.82 C 585.12 343.27 584.91 342.73 584.72 342.20 C 583.99 351.71 580.07 360.61 579.05 370.09 C 578.97 369.50 578.82 368.31 578.75 367.71 C 578.02 361.45 579.57 355.27 579.48 349.02 C 579.52 342.50 579.32 335.97 580.08 329.48 C 580.80 318.00 580.15 306.48 580.82 295.00 C 581.68 286.34 581.29 277.63 581.53 268.94 C 581.98 264.03 578.25 260.32 576.79 255.94 C 577.20 252.10 580.45 249.12 580.88 245.23 C 579.16 242.96 576.87 241.22 574.78 239.32 C 575.03 239.03 575.52 238.46 575.76 238.17 C 573.79 238.06 571.82 237.97 569.86 237.92 C 571.62 237.26 573.84 237.05 574.97 235.36 C 574.07 234.62 573.13 233.96 572.19 233.30 C 576.79 232.52 581.18 230.75 585.09 228.20 Z" />
</g>
<g id="#3a6073ff">
<path fill="#3a6073" opacity="1.00" d=" M 604.54 210.28 C 604.54 209.69 604.55 208.49 604.56 207.90 C 607.85 212.11 611.21 216.28 614.74 220.30 C 618.01 224.26 623.06 225.89 627.31 228.52 C 625.95 228.31 624.59 228.16 623.24 227.99 C 623.89 229.88 624.82 231.74 624.93 233.76 C 623.07 236.61 620.33 238.83 618.82 241.91 C 623.61 246.89 630.59 248.86 635.99 253.09 C 630.28 272.13 623.03 290.66 616.27 309.34 C 608.78 328.42 601.55 347.60 593.48 366.45 C 590.59 374.05 586.63 381.24 584.52 389.12 C 581.42 388.40 578.29 387.79 575.12 387.58 L 575.15 386.98 C 575.80 380.46 578.08 374.23 578.75 367.71 C 578.82 368.31 578.97 369.50 579.05 370.09 C 580.07 360.61 583.99 351.71 584.72 342.20 C 584.91 342.73 585.12 343.27 585.33 343.82 C 588.09 328.69 592.27 313.85 595.03 298.72 C 601.56 269.75 605.87 240.04 604.54 210.28 Z" />
</g>
<g id="#083a51ff">
<path fill="#083a51" opacity="1.00" d=" M 494.90 221.94 C 496.64 221.62 498.39 221.38 500.14 221.12 C 497.86 223.47 494.84 225.47 493.83 228.74 C 496.55 230.99 499.56 232.87 502.44 234.91 C 498.66 237.49 494.41 239.35 490.83 242.21 C 490.83 243.96 491.22 245.69 491.71 247.36 C 501.82 276.21 511.57 305.19 522.14 333.88 C 526.27 345.13 529.99 356.58 534.60 367.63 C 538.07 368.69 541.70 369.05 545.25 369.80 C 541.84 369.42 538.42 369.34 535.01 369.31 C 529.46 369.37 524.22 367.15 518.68 367.09 C 518.42 370.02 519.60 372.70 521.56 374.83 C 518.64 374.08 515.61 374.09 512.64 374.39 C 511.89 378.86 511.24 383.34 510.74 387.83 C 508.83 390.17 507.10 393.26 508.87 396.22 C 511.62 401.13 511.24 407.48 515.41 411.62 C 519.05 415.70 524.73 416.54 529.83 417.48 C 534.93 418.28 539.88 419.80 544.87 421.12 C 548.36 421.98 551.98 421.96 555.50 422.66 C 557.98 425.23 559.10 428.76 560.71 431.89 C 558.84 433.30 556.99 434.73 555.05 436.05 C 544.25 440.70 533.11 445.62 525.17 454.62 C 523.82 454.06 522.47 453.50 521.10 453.04 C 517.06 452.01 513.05 450.74 508.90 450.31 C 506.84 450.07 505.70 452.19 504.47 453.46 C 497.48 463.04 494.04 475.20 495.43 487.02 C 496.46 488.78 498.65 488.91 500.42 489.41 C 505.56 490.69 510.88 490.66 516.14 490.71 C 516.29 490.34 516.59 489.61 516.75 489.24 C 516.94 488.84 517.32 488.02 517.51 487.62 C 531.89 486.50 546.30 486.12 560.69 485.30 C 560.91 490.79 560.70 496.31 559.26 501.64 C 558.79 503.78 558.26 505.91 557.76 508.04 C 556.11 514.59 554.75 521.20 553.63 527.86 C 550.14 543.74 544.87 559.25 537.98 573.98 C 533.37 583.67 527.46 593.33 518.29 599.32 C 511.69 603.03 503.74 603.08 496.39 602.57 C 478.20 600.51 460.55 594.84 444.14 586.80 C 442.56 585.94 440.94 585.09 439.57 583.93 C 439.32 581.49 439.64 579.05 440.02 576.65 C 444.07 543.50 450.62 510.73 455.67 477.73 C 444.32 472.33 432.95 466.99 421.72 461.35 C 411.71 456.17 401.19 451.79 392.10 445.02 C 384.90 439.95 376.75 434.21 374.77 425.04 C 372.69 413.82 377.56 403.03 380.62 392.47 C 389.65 365.75 400.24 339.59 410.65 313.38 C 419.96 290.98 426.70 267.52 437.60 245.78 C 440.22 240.59 445.05 236.47 450.78 235.18 C 465.87 232.25 480.66 227.69 494.90 221.94 M 458.64 365.50 C 455.59 373.43 451.90 381.09 448.59 388.91 C 445.50 396.38 440.97 403.09 437.34 410.27 C 445.84 415.05 453.94 420.55 462.60 425.04 C 463.02 412.36 462.75 399.67 462.53 386.99 C 462.08 379.76 460.55 372.61 460.40 365.35 C 459.96 365.39 459.08 365.46 458.64 365.50 Z" />
<path fill="#083a51" opacity="1.00" d=" M 623.24 227.99 C 624.59 228.16 625.95 228.31 627.31 228.52 C 644.34 237.58 661.29 246.97 679.31 253.92 C 685.60 256.94 685.75 264.84 686.71 270.82 C 686.89 270.28 687.08 269.74 687.28 269.21 C 688.04 276.64 690.33 283.78 691.68 291.10 C 694.25 304.07 697.43 316.91 700.05 329.88 C 701.42 336.55 703.30 343.16 703.72 349.99 C 703.90 349.00 704.09 348.01 704.29 347.03 C 704.60 351.89 705.73 356.64 706.82 361.38 C 711.20 382.41 715.92 403.39 719.47 424.59 C 720.84 432.27 721.61 440.69 717.85 447.85 C 714.82 453.41 709.50 458.25 703.04 459.10 C 693.38 460.23 683.73 458.54 674.07 458.33 C 665.74 457.93 657.53 456.16 649.18 456.26 C 649.46 466.51 652.68 476.60 651.42 486.90 C 651.72 485.87 652.04 484.85 652.39 483.84 C 654.69 502.85 657.70 521.77 659.86 540.79 C 662.86 556.08 663.80 571.67 666.28 587.04 C 667.44 592.11 661.80 594.66 658.27 596.87 C 647.23 601.59 635.32 604.53 623.29 604.55 C 614.00 603.93 603.66 602.17 597.20 594.81 C 590.54 586.90 587.07 576.97 583.62 567.38 C 580.04 556.96 576.77 546.37 574.86 535.51 C 574.54 532.96 574.26 530.40 573.94 527.86 C 573.11 518.48 570.06 509.44 569.84 499.99 C 569.76 495.55 568.15 491.16 568.67 486.73 C 571.29 484.78 575.16 485.07 578.03 483.29 C 585.06 477.90 590.39 470.74 596.20 464.14 C 599.50 460.08 603.79 455.72 603.23 450.04 C 602.87 446.18 602.66 442.31 602.22 438.47 C 601.93 436.08 599.31 435.27 597.64 434.03 C 596.86 431.61 596.38 429.05 595.07 426.84 C 593.84 425.44 592.12 424.64 590.56 423.71 C 590.22 413.39 592.17 402.59 588.21 392.73 C 587.64 390.98 585.99 390.01 584.52 389.12 C 586.63 381.24 590.59 374.05 593.48 366.45 C 601.55 347.60 608.78 328.42 616.27 309.34 C 623.03 290.66 630.28 272.13 635.99 253.09 C 630.59 248.86 623.61 246.89 618.82 241.91 C 620.33 238.83 623.07 236.61 624.93 233.76 C 624.82 231.74 623.89 229.88 623.24 227.99 M 615.33 327.28 C 612.50 329.19 611.52 332.86 610.89 336.04 C 610.42 337.88 612.34 339.25 614.03 339.13 C 623.36 339.57 632.71 338.99 642.01 338.24 C 643.40 337.97 645.10 338.27 646.25 337.27 C 647.80 333.88 648.72 330.23 650.06 326.75 C 646.17 325.38 642.03 325.68 638.00 325.75 C 630.42 325.64 622.81 326.13 615.33 327.28 M 650.53 392.23 C 650.43 395.05 650.29 397.87 650.35 400.71 C 652.98 401.30 655.66 401.63 658.36 401.80 C 656.68 398.13 654.65 394.63 652.81 391.05 C 652.04 391.43 651.28 391.82 650.53 392.23 Z" />
</g>
<g id="#ec8b47ff">
<path fill="#ec8b47" opacity="1.00" d=" M 561.45 246.07 C 564.59 241.93 569.88 240.30 574.78 239.32 C 576.87 241.22 579.16 242.96 580.88 245.23 C 580.45 249.12 577.20 252.10 576.79 255.94 C 578.25 260.32 581.98 264.03 581.53 268.94 C 581.29 277.63 581.68 286.34 580.82 295.00 C 580.15 306.48 580.80 318.00 580.08 329.48 C 579.32 335.97 579.52 342.50 579.48 349.02 C 579.57 355.27 578.02 361.45 578.75 367.71 C 578.08 374.23 575.80 380.46 575.15 386.98 C 567.30 384.47 560.16 379.29 555.43 372.56 C 554.73 365.73 555.82 358.83 555.99 351.97 C 557.52 336.37 555.94 320.65 557.71 305.07 C 558.43 297.06 558.02 288.99 559.01 281.01 C 559.73 275.00 559.45 268.86 560.95 262.96 C 562.17 260.64 563.99 258.55 564.52 255.94 C 564.21 252.47 562.09 249.47 561.45 246.07 Z" />
</g>
<g id="#ebebe9ff">
<path fill="#ebebe9" opacity="1.00" d=" M 554.30 248.35 C 556.47 248.95 554.11 252.25 552.61 250.89 C 551.71 249.80 553.04 248.15 554.30 248.35 Z" />
</g>
<g id="#183540ff">
<path fill="#183540" opacity="1.00" d=" M 977.36 314.36 C 979.57 312.47 981.54 309.63 984.84 310.84 C 983.10 313.02 980.79 314.79 979.43 317.24 C 979.61 320.21 985.06 321.53 983.00 324.87 C 980.69 323.72 979.11 321.52 976.87 320.32 C 974.39 321.00 972.73 323.69 969.98 324.06 C 970.52 321.60 972.28 319.78 973.69 317.80 C 973.27 315.24 970.14 313.92 970.13 311.13 C 973.21 310.38 974.47 315.12 977.36 314.36 Z" />
</g>
<g id="#04293bff">
<path fill="#04293b" opacity="1.00" d=" M 615.33 327.28 C 622.81 326.13 630.42 325.64 638.00 325.75 C 642.03 325.68 646.17 325.38 650.06 326.75 C 648.72 330.23 647.80 333.88 646.25 337.27 C 645.10 338.27 643.40 337.97 642.01 338.24 C 632.71 338.99 623.36 339.57 614.03 339.13 C 612.34 339.25 610.42 337.88 610.89 336.04 C 611.52 332.86 612.50 329.19 615.33 327.28 Z" />
</g>
<g id="#dde7e9ff">
<path fill="#dde7e9" opacity="1.00" d=" M 458.64 365.50 C 459.08 365.46 459.96 365.39 460.40 365.35 C 460.55 372.61 462.08 379.76 462.53 386.99 C 462.75 399.67 463.02 412.36 462.60 425.04 C 453.94 420.55 445.84 415.05 437.34 410.27 C 440.97 403.09 445.50 396.38 448.59 388.91 C 451.90 381.09 455.59 373.43 458.64 365.50 Z" />
</g>
<g id="#fefefdff">
<path fill="#fefefd" opacity="1.00" d=" M 575.12 387.58 C 578.29 387.79 581.42 388.40 584.52 389.12 C 585.99 390.01 587.64 390.98 588.21 392.73 C 592.17 402.59 590.22 413.39 590.56 423.71 C 590.15 424.33 589.31 425.56 588.90 426.18 C 583.45 426.21 578.14 427.57 572.71 427.69 C 570.90 426.73 569.16 425.67 567.40 424.64 C 568.17 423.63 568.98 422.67 569.77 421.68 C 577.90 412.09 574.93 399.03 575.12 387.58 Z" />
</g>
<g id="#cee3ecff">
<path fill="#cee3ec" opacity="1.00" d=" M 650.53 392.23 C 651.28 391.82 652.04 391.43 652.81 391.05 C 654.65 394.63 656.68 398.13 658.36 401.80 C 655.66 401.63 652.98 401.30 650.35 400.71 C 650.29 397.87 650.43 395.05 650.53 392.23 Z" />
</g>
<g id="#565c5cff">
<path fill="#565c5c" opacity="1.00" d=" M 563.01 429.18 C 564.21 425.26 564.76 420.16 569.40 418.84 C 569.49 419.55 569.68 420.97 569.77 421.68 C 568.98 422.67 568.17 423.63 567.40 424.64 C 565.98 426.65 564.92 428.90 563.92 431.14 C 564.48 431.15 565.61 431.18 566.18 431.19 C 562.48 432.85 558.83 434.60 555.05 436.05 C 556.99 434.73 558.84 433.30 560.71 431.89 C 559.10 428.76 557.98 425.23 555.50 422.66 C 551.98 421.96 548.36 421.98 544.87 421.12 C 550.19 421.61 555.54 421.25 560.85 420.80 C 561.55 423.60 562.29 426.38 563.01 429.18 Z" />
</g>
<g id="#294243ff">
<path fill="#294243" opacity="1.00" d=" M 563.92 431.14 C 564.92 428.90 565.98 426.65 567.40 424.64 C 569.16 425.67 570.90 426.73 572.71 427.69 C 572.65 428.12 572.52 428.98 572.46 429.41 C 570.36 430.00 568.27 430.60 566.18 431.19 C 565.61 431.18 564.48 431.15 563.92 431.14 Z" />
</g>
<g id="#49544fff">
<path fill="#49544f" opacity="1.00" d=" M 584.79 428.10 C 585.97 427.31 587.44 427.29 588.80 427.01 C 588.34 429.20 589.44 433.07 586.00 432.68 L 584.89 432.90 C 584.73 431.30 584.54 429.69 584.79 428.10 Z" />
</g>
<g id="#123a49ff">
<path fill="#123a49" opacity="1.00" d=" M 579.53 436.52 C 581.22 435.20 582.68 433.34 584.89 432.90 L 586.00 432.68 C 587.86 437.63 585.30 443.27 581.08 446.14 C 577.36 448.71 573.00 451.21 568.31 450.70 C 566.28 450.42 563.51 448.96 564.49 446.51 C 569.77 443.61 574.99 440.53 579.53 436.52 Z" />
</g>
<g id="#e2a988ff">
<path fill="#e2a988" opacity="1.00" d=" M 595.44 435.72 C 599.32 437.51 597.84 442.55 597.71 445.94 C 596.68 455.59 588.73 462.05 581.52 467.49 C 579.77 468.71 577.67 469.24 575.65 469.81 C 576.29 468.19 577.07 466.57 578.60 465.64 C 584.82 461.22 590.51 455.68 593.64 448.62 C 595.48 444.57 595.09 440.03 595.44 435.72 Z" />
</g>
<g id="#3d433fff">
<path fill="#3d433f" opacity="1.00" d=" M 566.66 484.16 C 570.45 483.91 574.23 483.53 578.03 483.29 C 575.16 485.07 571.29 484.78 568.67 486.73 C 568.15 491.16 569.76 495.55 569.84 499.99 C 570.06 509.44 573.11 518.48 573.94 527.86 L 573.10 528.08 C 569.84 528.79 566.53 529.33 563.20 529.57 C 562.61 529.53 561.42 529.44 560.83 529.40 C 558.40 529.00 556.01 528.43 553.63 527.86 C 554.75 521.20 556.11 514.59 557.76 508.04 C 559.13 508.08 560.51 508.11 561.90 508.13 C 560.55 509.42 558.93 510.63 558.44 512.53 C 557.18 517.04 556.68 521.72 555.83 526.32 C 560.08 527.34 564.53 528.08 568.86 527.07 C 570.27 526.92 571.40 525.41 571.15 524.01 C 570.65 518.50 568.91 513.20 567.14 507.99 C 567.79 507.85 569.07 507.56 569.71 507.41 C 569.28 505.44 568.85 503.48 568.38 501.52 C 566.96 495.86 566.14 490.00 566.66 484.16 Z" />
</g>
<g id="#dd8f5aff">
<path fill="#dd8f5a" opacity="1.00" d=" M 561.96 484.65 C 563.51 484.37 565.08 484.26 566.66 484.16 C 566.14 490.00 566.96 495.86 568.38 501.52 C 568.18 501.86 567.78 502.54 567.58 502.88 C 564.72 504.61 561.79 503.21 559.26 501.64 C 560.70 496.31 560.91 490.79 560.69 485.30 C 561.01 485.14 561.64 484.81 561.96 484.65 Z" />
</g>
<g id="#65aaabff">
<path fill="#65aaab" opacity="1.00" d=" M 267.39 486.47 C 271.28 486.04 275.64 488.22 276.89 492.10 C 279.64 498.17 273.88 506.25 267.08 504.73 C 260.11 504.54 257.18 495.76 260.43 490.38 C 261.95 488.03 264.64 486.69 267.39 486.47 M 264.45 491.35 C 263.06 493.08 262.22 495.54 263.24 497.67 C 264.31 500.67 268.64 502.49 271.24 500.24 C 273.63 498.57 274.61 494.85 272.58 492.52 C 270.88 489.75 267.02 490.32 264.45 491.35 Z" />
</g>
<g id="#c6dce0ff">
<path fill="#c6dce0" opacity="1.00" d=" M 264.45 491.35 C 267.02 490.32 270.88 489.75 272.58 492.52 C 274.61 494.85 273.63 498.57 271.24 500.24 C 268.64 502.49 264.31 500.67 263.24 497.67 C 262.22 495.54 263.06 493.08 264.45 491.35 Z" />
</g>
<g id="#b1b6b2ff">
<path fill="#b1b6b2" opacity="1.00" d=" M 557.76 508.04 C 558.26 505.91 558.79 503.78 559.26 501.64 C 559.34 503.53 559.43 505.41 559.53 507.31 C 562.46 507.28 565.39 507.25 568.32 507.22 C 568.05 505.77 567.79 504.33 567.58 502.88 C 567.78 502.54 568.18 501.86 568.38 501.52 C 568.85 503.48 569.28 505.44 569.71 507.41 C 569.07 507.56 567.79 507.85 567.14 507.99 C 565.39 508.12 563.64 508.14 561.90 508.13 C 560.51 508.11 559.13 508.08 557.76 508.04 Z" />
</g>
<g id="#fdf3ddff">
<path fill="#fdf3dd" opacity="1.00" d=" M 559.26 501.64 C 561.79 503.21 564.72 504.61 567.58 502.88 C 567.79 504.33 568.05 505.77 568.32 507.22 C 565.39 507.25 562.46 507.28 559.53 507.31 C 559.43 505.41 559.34 503.53 559.26 501.64 Z" />
</g>
<g id="#714e30ff">
<path fill="#714e30" opacity="1.00" d=" M 561.90 508.13 C 563.64 508.14 565.39 508.12 567.14 507.99 C 568.91 513.20 570.65 518.50 571.15 524.01 C 571.40 525.41 570.27 526.92 568.86 527.07 C 564.53 528.08 560.08 527.34 555.83 526.32 C 556.68 521.72 557.18 517.04 558.44 512.53 C 558.93 510.63 560.55 509.42 561.90 508.13 Z" />
</g>
<g id="#386074ff">
<path fill="#386074" opacity="1.00" d=" M 563.20 529.57 C 566.53 529.33 569.84 528.79 573.10 528.08 C 570.98 529.73 569.50 532.13 569.77 534.91 C 569.75 546.52 570.13 558.21 568.54 569.75 C 568.26 573.41 564.57 574.89 561.79 576.40 C 560.71 570.18 561.09 563.85 561.72 557.61 C 562.64 548.29 563.00 538.93 563.20 529.57 Z" />
</g>
<g id="#194659ff">
<path fill="#194659" opacity="1.00" d=" M 573.10 528.08 L 573.94 527.86 C 574.26 530.40 574.54 532.96 574.86 535.51 C 573.04 537.18 572.07 539.51 572.31 542.00 C 572.51 550.67 572.59 559.36 571.98 568.03 C 571.75 570.85 571.11 573.91 568.90 575.89 C 566.75 577.75 563.92 578.48 561.33 579.50 C 560.72 584.62 560.74 589.81 559.98 594.92 C 559.90 596.33 558.96 597.42 558.05 598.42 C 556.42 594.40 557.30 590.04 557.54 585.87 C 557.94 579.34 557.84 572.79 558.41 566.27 C 559.34 553.99 559.15 541.61 560.83 529.40 C 561.42 529.44 562.61 529.53 563.20 529.57 C 563.00 538.93 562.64 548.29 561.72 557.61 C 561.09 563.85 560.71 570.18 561.79 576.40 C 564.57 574.89 568.26 573.41 568.54 569.75 C 570.13 558.21 569.75 546.52 569.77 534.91 C 569.50 532.13 570.98 529.73 573.10 528.08 Z" />
</g>
<g id="#1b3a44ff">
<path fill="#1b3a44" opacity="1.00" d=" M 56.81 557.43 C 58.74 558.23 60.43 559.47 62.24 560.51 C 64.38 559.82 66.14 558.23 68.24 557.39 C 67.32 559.62 65.95 561.63 64.43 563.50 C 66.13 565.03 67.70 566.71 69.07 568.54 C 67.89 568.55 66.72 568.55 65.55 568.54 C 64.70 567.52 63.85 566.50 62.99 565.50 C 61.01 566.65 59.01 567.78 56.86 568.60 C 57.69 566.67 58.73 564.86 59.82 563.08 C 58.66 561.27 57.59 559.41 56.81 557.43 Z" />
</g>
<g id="#dbe7e9ff">
<path fill="#dbe7e9" opacity="1.00" d=" M 556.74 602.41 C 557.61 602.33 558.48 602.26 559.36 602.20 C 560.05 609.79 560.77 617.37 560.95 625.00 L 551.22 625.00 C 552.83 617.41 555.35 610.05 556.74 602.41 Z" />
</g>
</svg>
